# xmcd
#
# Track frame offsets: 
#        150
#        11667
#        29301
#        44114
#        57391
#        67504
#        86653
#        100478
#        114053
#        124214
#
# Disc length: 1836 seconds
#
# Revision: 0
# Processed by: cddbd v1.5.2PL0 Copyright (c) Steve Scherf et al.
# Submitted via: ExactAudioCopy v0.99pb4
#
DISCID=7f072a0a
DTITLE=Jim and Sonny - Kentucky
DYEAR=1900
DGENRE=Bluegrass
TTITLE0=Alabama Jubilee
TTITLE1=Home Is a Heart
TTITLE2=Country Woman's Heart
TTITLE3=Johnson's Old Gray Mule
TTITLE4=The Ozark Moon
TTITLE5=Wendigo
TTITLE6=When Booker Blowed the Jug
TTITLE7=Daniel's Trail
TTITLE8=Kentucky
TTITLE9=Colly Davis
EXTD=
EXTT0=
EXTT1=
EXTT2=
EXTT3=
EXTT4=
EXTT5=
EXTT6=
EXTT7=
EXTT8=
EXTT9=
PLAYORDER=
